# xmcd
#
# Track frame offsets:
#	150
#	14776
#	28989
#	40830
#	56470
#	76644
#	94261
#	111024
#	131190
#	146805
#	165395
#	180825
#	193464
#
# Disc length: 2766 seconds
#
# Revision: 0
# Processed by: cddbd v1.5.1PL0 Copyright (c) Steve Scherf et al.
# Submitted via: EasyCDDAExtractor 8.2.1.1
#
DISCID=b10acc0d
DTITLE=лахес циаммгс - амаса тгс фыгс лоу циме
DYEAR=2005
DGENRE=казйа
TTITLE0=памта мувта
TTITLE1=пыс хес ма то неяы
TTITLE2=сто дяоло
TTITLE3=пес
TTITLE4=дусйокои йаияои
TTITLE5=идамийос йаи аманиос еяастгс
TTITLE6=ови де ха йкаьы
TTITLE7=жтаиле йаи ои дуо
TTITLE8=еимаи ма апояеис
TTITLE9=левяи вхес
TTITLE10=лг лоу кес покка
TTITLE11=дем еисаи еяытас есу
TTITLE12=пыс хес ма то неяы RADIO VERSION
EXTD=
EXTT0=
EXTT1=
EXTT2=
EXTT3=
EXTT4=
EXTT5=
EXTT6=
EXTT7=
EXTT8=
EXTT9=
EXTT10=
EXTT11=
EXTT12=
PLAYORDER=
